<svg xmlns="http://www.w3.org/2000/svg" width="1024" height="1024" viewBox="-51.5 -51.5 1127.0 1127.0">
  <g fill="none" stroke="black" stroke-width="45" stroke-linecap="round" stroke-linejoin="round">
    <path d="M 452.608,477.496 C 451.896,459.055 449.988,450.71 444.629,438.933 C 437.483,430.212 429.299,423.94 416.459,418.146 C 402.291,415.953 391.043,417.124 377.108,422.356 C 368.602,428.003 360.626,436.643 355.337,446.214 C 351.935,457.177 350.983,468.889 352.793,480.176 L 358.31,499.151" data-line="nan"  stroke-width="45.0"/>
    <path d="M 923.921,260.315 C 919.375,249.637 917.37,240.604 917.167,231.302 C 919.156,221.138 922.952,211.151 927.529,203.952 C 933.747,197.205 941.712,191.2 951.348,186.642 C 960.295,184.186 971.429,183.537 980.639,184.988 C 990.058,188.234 1000.227,194.624 1008.263,202.129 C 1013.075,208.983 1016.974,217.619 1019.303,226.179 C 1020.0,235.423 1019.179,242.974 1016.087,253.851 C 1012.094,261.955 1005.536,270.024 1000.257,274.821 C 992.76,279.721 987.963,281.904 977.573,284.793 C 971.279,285.566 956.76,284.416 932.361,275.997" data-line="nan"  stroke-width="45.0"/>
    <path d="M 10.777,72.263 L 11.05,976.504" data-line="0.0"  stroke-width="45.0"/>
    <path d="M 1015.191,976.456 L 11.05,976.504" data-line="1.0"  stroke-width="45.0"/>
    <path d="M 452.47878745358776,477.45932179252037 A 53.89119027370023,53.89119027370023 0 0,1 359.779928019286,497.88659721062794" data-line="5.0"  stroke-width="45.0"/>
    <path d="M 932.238,276.146 L 717.619,555.045" data-line="7.0"  stroke-width="45.0"/>
    <path d="M 109.926,753.43 L 358.31,499.151" data-line="8.0"  stroke-width="45.0"/>
    <path d="M 923.921,260.315 L 932.112,275.907" data-line="9.0"  stroke-width="45.0"/>
    <path d="M 717.619,555.045 C 683.5380940387716,596.3768495371411 659.7445837011572,585.5520515665611 621.652,564.387" data-line="10.0"  stroke-width="45.0"/>
    <path d="M 621.652,564.387 L 452.608,477.496" data-line="11.0"  stroke-width="45.0"/>
  </g>
</svg>