<svg xmlns="http://www.w3.org/2000/svg" width="1024" height="1024" viewBox="-51.5 -51.5 1127.0 1127.0">
  <g fill="none" stroke="black" stroke-width="45" stroke-linecap="round" stroke-linejoin="round">
    <path d="M 209.752,923.829 C 211.159,945.202 213.7,956.11 217.777,967.52 C 221.256,974.718 227.433,984.332 232.432,990.444 C 240.759,998.446 249.078,1004.455 257.968,1009.397 C 268.304,1013.688 276.285,1016.053 293.831,1019.14 L 327.12,1019.968" data-line="nan"  stroke-width="45.0"/>
    <path d="M 709.85,1019.993 C 735.313,1018.579 747.557,1016.148 757.804,1012.932 C 766.605,1009.194 776.951,1003.157 786.941,995.16 C 794.463,987.281 800.73,978.578 805.831,969.156 C 809.482,959.791 812.322,949.0 814.289,933.457 L 814.408,896.359" data-line="nan"  stroke-width="45.0"/>
    <path d="M 814.093,98.429 C 813.763,88.425 811.808,75.378 809.121,64.911 C 804.618,53.555 800.81,46.533 794.557,37.728 C 785.662,28.368 778.769,22.859 771.493,18.078 C 760.403,12.701 750.407,9.211 740.393,6.791 Q 720.851,4.44 685.534,4.07" data-line="nan"  stroke-width="45.0"/>
    <path d="M 448.481,81.214 L 569.021,81.015" data-line="0.0"  stroke-width="45.0"/>
    <path d="M 209.689,799.288 L 209.752,923.829" data-line="1.0"  stroke-width="45.0"/>
    <path d="M 814.281,793.713 L 209.67,793.579" data-line="2.0"  stroke-width="45.0"/>
    <circle cx="511.36654883056855" cy="906.8339782665342" r="57.924440612236914" data-line="4.0"  stroke-width="45.0"/>
    <path d="M 550.218,949.904 L 555.15,946.065" data-line="5.0"  stroke-width="45.0"/>
    <path d="M 327.12,1019.968 L 709.85,1019.993" data-line="7.0"  stroke-width="45.0"/>
    <path d="M 814.408,896.359 L 814.093,98.429" data-line="9.0"  stroke-width="45.0"/>
    <path d="M 685.534,4.07 L 314.809,4.006" data-line="11.0"  stroke-width="45.0"/>
    <path d="M 314.5986282852992,5.431320192461897 A 91.98892400076492,91.98892400076492 0 0,0 211.367727781334,116.38590653147183" data-line="12.0"  stroke-width="45.0"/>
    <path d="M 209.765,116.742 L 209.689,799.288" data-line="13.0"  stroke-width="45.0"/>
  </g>
</svg>