<svg xmlns="http://www.w3.org/2000/svg" width="1024" height="1024" viewBox="-51.5 -51.5 1127.0 1127.0">
  <g fill="none" stroke="black" stroke-width="45" stroke-linecap="round" stroke-linejoin="round">
    <path d="M 351.447,847.623 L 507.791,847.351" data-line="nan"  stroke-width="45.0"/>
    <path d="M 842.211,847.373 C 916.527,846.818 929.493,843.994 937.339,840.684 C 944.494,836.439 953.913,828.569 959.211,822.491 C 965.898,811.716 970.233,799.962 972.162,787.938 C 971.92,778.712 970.115,769.32 966.519,758.932" data-line="nan"  stroke-width="45.0"/>
    <path d="M 686.677,847.518 C 680.221,885.847 675.203,903.0 670.847,914.242 C 662.502,931.185 655.429,942.671 642.097,960.0 C 631.314,971.34 619.749,981.697 602.711,993.981 C 591.016,1000.711 573.836,1008.575 556.889,1014.236 C 539.868,1018.006 528.543,1019.389 511.565,1020.0 C 494.604,1019.238 483.323,1017.669 466.296,1013.761 C 449.275,1008.043 432.323,1000.255 421.279,993.906 C 404.324,981.788 393.393,972.251 383.511,962.108 C 370.198,945.424 362.918,934.204 353.869,916.777 C 349.334,905.63 344.086,888.631 336.666,847.661" data-line="nan"  stroke-width="45.0"/>
    <path d="M 966.519,758.932 C 962.626,751.287 954.239,739.214 926.356,707.555 C 903.717,677.846 885.267,649.27 870.326,622.213 C 854.008,587.016 841.732,554.398 830.32,515.978 L 822.748,480.904" data-line="nan"  stroke-width="45.0"/>
    <path d="M 814.854,354.882 C 813.761,337.212 810.953,315.428 807.386,297.721 C 802.075,278.09 795.244,258.51 789.095,243.885 C 779.57,224.764 768.798,206.647 757.214,189.954 C 742.242,171.538 728.129,156.802 710.702,140.314 C 696.614,128.831 679.42,116.745 662.607,106.557 C 645.386,97.581 626.241,89.146 608.722,83.041 C 586.844,77.29 566.663,73.637 541.458,70.892 C 511.441,69.423 472.218,71.533 453.973,73.782 C 433.468,78.025 413.97,83.566 398.176,89.177 C 382.555,95.704 368.02,102.859 349.478,113.472 C 334.99,123.041 320.051,134.258 303.992,147.831 C 290.307,161.16 275.419,177.832 264.187,192.303 C 251.334,211.591 241.857,228.328 232.302,248.33 C 220.646,280.06 215.629,298.638 212.139,315.618 C 209.55,332.337 208.015,349.22 206.215,425.523 C 202.199,462.697 198.477,485.518 192.491,513.206 C 186.841,534.314 178.351,560.892 169.496,584.616 C 158.47,610.294 147.251,632.769 136.206,652.255 C 119.599,678.01 104.582,698.577 66.035,743.966 C 57.545,758.051 53.506,769.358 52.104,776.564 C 51.756,785.215 53.543,800.742 57.996,812.741 C 65.388,824.088 75.821,833.935 89.86,841.896 Q 103.498,846.139 120.529,847.345" data-line="nan"  stroke-width="45.0"/>
    <path d="M 511.441,69.423 L 511.542,4.0" data-line="2.0"  stroke-width="45.0"/>
    <path d="M 822.748,480.904 L 814.854,354.882" data-line="4.0"  stroke-width="45.0"/>
    <path d="M 507.791,847.351 L 842.211,847.373" data-line="4.0"  stroke-width="45.0"/>
    <path d="M 120.529,847.345 L 351.447,847.623" data-line="6.0"  stroke-width="45.0"/>
  </g>
</svg>